<svg width="354" height="310" viewBox="0 0 354 310" fill="none" xmlns="http://www.w3.org/2000/svg">
<path d="M0 211.658C19 197.634 71.2 172.423 120 197.972C181 229.907 201 297.834 202 310" stroke="#A4A7E7" stroke-width="2"/>
<path d="M0.5 39C67.522 -2.69094 119.2 -8.70001 194 16.5C287.5 48 326 124 331 134C336 144 377 205 331 264C298.632 305.515 297 309 297 310" stroke="#A4A7E7" stroke-width="2"/>
<path d="M0 126.918C28.7808 108.308 104.31 80.2422 176.179 116.859C266.015 162.629 274 264.732 274 270.265C274 275.798 273.002 293.402 266.015 310" stroke="#A4A7E7" stroke-width="2"/>
</svg>
