<svg width="364" height="660" viewBox="0 0 364 660" fill="none" xmlns="http://www.w3.org/2000/svg">
<path d="M5.00005 2.5C-1.49995 16.8333 -4.49995 48.9 35.5 62.5C85.5 79.5 111.5 79.5 148.5 109.5C185.5 139.5 137.223 220.5 121 248C80 317.5 35.7854 446.901 58.5 529.5C69.5 569.5 96.1595 616.556 140 642.5C201 674.5 304 659.5 360 610.5" stroke="#A4A7E7"/>
<path d="M76.5 1C77.6667 16.6667 94.2 50 151 58C207.8 66 207.5 118 196.5 148.5C183.156 185.5 141 251.5 127.5 280C111.868 313 47.5 512.5 182.5 555.5C290.5 589.9 347.833 548.5 363 523.5M363 441C330.167 470.167 248.1 511 182.5 441C116.9 371 143.5 289.167 165 257C186.167 222.833 222.5 150.5 234 118.5C246.602 83.4331 250.5 58 189 33.5C153.014 19.1642 147 8.5 147 1" stroke="#A4A7E7"/>
</svg>
